<svg width="215" height="164" viewBox="0 0 215 164" fill="none" xmlns="http://www.w3.org/2000/svg">
<path d="M99.1833 1.01952C57.7218 5.54559 27.7845 42.7977 32.3144 84.2183C34.2977 102.37 42.5712 118.305 54.7292 130.106L55.8558 163.724L83.8743 147.718C93.7908 150.972 104.535 152.232 115.589 151.025C157.051 146.499 186.988 109.247 182.458 67.826C177.928 26.4054 140.645 -3.50656 99.1833 1.01952Z" fill="url(#paint0_linear)"/>
<path d="M182.928 35.7741C189.007 34.8243 195.156 34.156 201.476 34.5957C203.06 34.7423 204.656 34.8888 206.264 35.2992C207.866 35.692 209.515 36.1962 211.116 37.275C211.914 37.8085 212.683 38.5179 213.317 39.4325C213.616 39.8898 213.851 40.4292 214.074 40.951C214.209 41.4962 214.35 42.0707 214.414 42.6336C214.573 44.9494 213.728 46.7903 212.877 48.3556C211.069 51.4922 208.711 53.7904 206.334 55.9714C203.928 58.123 201.411 60.0519 198.847 61.8928C193.713 65.5688 188.303 68.7054 182.852 71.7189C171.937 77.7399 160.601 82.7995 149.112 87.4135C137.611 92.0158 125.911 96.0436 114.081 99.6609C102.246 103.249 90.2643 106.374 78.1474 108.953C66.0246 111.486 53.7728 113.579 41.3214 114.541C35.1016 115.016 28.8348 115.356 22.4859 115.01C19.3115 114.822 16.1194 114.511 12.8863 113.849C11.2727 113.509 9.64728 113.11 8.00431 112.459C6.37895 111.803 4.6773 111.052 3.15756 109.499C2.41822 108.736 1.73169 107.775 1.35615 106.638C0.951277 105.524 0.910206 104.316 1.0745 103.249C1.45004 101.109 2.48276 99.5671 3.50961 98.1952C5.66308 95.5394 8.13928 93.5343 10.727 91.7403C15.8964 88.1757 21.3945 85.3616 27.0217 82.864C21.9754 86.37 16.9702 89.9404 12.5401 93.9974C10.369 96.0377 8.26249 98.1952 6.83076 100.511C6.1501 101.654 5.64548 102.862 5.63375 103.782C5.63961 104.697 5.96234 105.178 6.67821 105.764C7.38233 106.35 8.57348 106.837 9.81744 107.183C11.0614 107.552 12.4579 107.769 13.8603 107.927C16.6769 108.238 19.6225 108.256 22.5681 108.162C28.4769 107.933 34.4561 107.329 40.406 106.438C64.235 102.792 87.8116 96.6416 111.042 89.6707C134.243 82.5885 157.227 74.533 179.172 64.4783C184.647 61.9573 189.981 59.1725 195.133 56.1825C197.691 54.6757 200.202 53.0928 202.538 51.3633C204.85 49.6396 207.056 47.7166 208.54 45.6646C209.28 44.6621 209.82 43.5951 209.849 42.8036C209.925 42.0238 209.579 41.2793 208.699 40.4995C207.842 39.7315 206.575 39.1218 205.255 38.641C203.934 38.1427 202.503 37.7792 201.065 37.445C195.232 36.2197 189.06 35.9734 182.928 35.7741Z" fill="#FFFF9C"/>
<defs>
<linearGradient id="paint0_linear" x1="147.708" y1="12.5321" x2="78.996" y2="120.934" gradientUnits="userSpaceOnUse">
<stop stop-color="#004CAA"/>
<stop offset="0.7797" stop-color="#00B2B9"/>
<stop offset="1" stop-color="#00D0BD"/>
</linearGradient>
</defs>
</svg>
